<svg width="22" height="22" viewBox="0 0 22 22" fill="none" xmlns="http://www.w3.org/2000/svg"><g clip-path="url(#a)" fill="#989898"><path d="M12.944 9.743a2.75 2.75 0 1 1-3.889 3.89 2.75 2.75 0 0 1 3.89-3.89z"/><path d="M19.25 4.125h-1.9l-1.376-2.75h-9.95L4.65 4.126l-1.897.004A2.755 2.755 0 0 0 .007 6.878L0 17.875a2.753 2.753 0 0 0 2.75 2.75h16.5a2.753 2.753 0 0 0 2.75-2.75v-11a2.753 2.753 0 0 0-2.75-2.75zM11 17.188a5.506 5.506 0 0 1-5.5-5.5c0-3.033 2.467-5.5 5.5-5.5 3.032 0 5.5 2.467 5.5 5.5 0 3.032-2.468 5.5-5.5 5.5z"/></g><defs><clipPath id="a"><path fill="#fff" d="M0 0h22v22H0z"/></clipPath></defs></svg>